<svg width="220" height="98" viewBox="0 0 220 98" fill="none" xmlns="http://www.w3.org/2000/svg">
<path d="M26.488 43.472C26.488 41.8933 26.7227 40.4 27.192 38.992C27.704 37.5413 28.6213 35.8773 29.944 34C31.48 31.824 32.5253 29.9467 33.08 28.368C33.6347 26.7893 33.912 25.1253 33.912 23.376C33.912 21.84 33.6133 20.7307 33.016 20.048C32.4187 19.3227 31.544 18.96 30.392 18.96C29.24 18.96 28.3653 19.3227 27.768 20.048C27.1707 20.7307 26.872 21.84 26.872 23.376V28.24H20.216V23.824C20.216 20.1973 21.0907 17.424 22.84 15.504C24.5893 13.5413 27.1493 12.56 30.52 12.56C33.9333 12.56 36.5147 13.5413 38.264 15.504C40.056 17.424 40.952 20.1973 40.952 23.824C40.952 25.7867 40.5893 27.6853 39.864 29.52C39.1813 31.312 37.9867 33.3387 36.28 35.6C34.9147 37.4347 33.9547 38.9707 33.4 40.208C32.888 41.4027 32.632 42.576 32.632 43.728V46.16H26.488V43.472ZM26.168 51.216H32.952V58H26.168V51.216Z" fill="black"/>
<path d="M2.87 28H12.53L20.02 57.33H20.16V28H27.02V77H19.11L9.87 41.23H9.73V77H2.87V28Z" fill="black"/>
<path d="M73.968 29.4H82.032C84.656 29.4 86.624 30.104 87.936 31.512C89.248 32.92 89.904 34.984 89.904 37.704V54.696C89.904 57.416 89.248 59.48 87.936 60.888C86.624 62.296 84.656 63 82.032 63H73.968V29.4ZM81.936 58.2C82.8 58.2 83.456 57.944 83.904 57.432C84.384 56.92 84.624 56.088 84.624 54.936V37.464C84.624 36.312 84.384 35.48 83.904 34.968C83.456 34.456 82.8 34.2 81.936 34.2H79.248V58.2H81.936ZM93.468 29.4H107.868V34.2H98.748V43.08H105.996V47.88H98.748V58.2H107.868V63H93.468V29.4ZM118.346 63.48C115.818 63.48 113.882 62.76 112.538 61.32C111.226 59.88 110.57 57.848 110.57 55.224V37.176C110.57 34.552 111.226 32.52 112.538 31.08C113.882 29.64 115.818 28.92 118.346 28.92C120.874 28.92 122.794 29.64 124.106 31.08C125.45 32.52 126.122 34.552 126.122 37.176V40.728H121.13V36.84C121.13 34.76 120.25 33.72 118.49 33.72C116.73 33.72 115.85 34.76 115.85 36.84V55.608C115.85 57.656 116.73 58.68 118.49 58.68C120.25 58.68 121.13 57.656 121.13 55.608V50.472H126.122V55.224C126.122 57.848 125.45 59.88 124.106 61.32C122.794 62.76 120.874 63.48 118.346 63.48ZM129.281 29.4H134.561V63H129.281V29.4ZM138.515 29.4H145.139L150.275 49.512H150.371V29.4H155.075V63H149.651L143.315 38.472H143.219V63H138.515V29.4ZM158.999 29.4H173.399V34.2H164.279V43.08H171.527V47.88H164.279V58.2H173.399V63H158.999V29.4ZM175.189 29.4H180.277L182.629 55.224H182.725L185.221 29.4H190.981L193.477 55.224H193.573L195.925 29.4H200.485L197.077 63H190.501L188.101 40.344H188.005L185.605 63H178.597L175.189 29.4ZM210.02 63.48C207.46 63.48 205.524 62.76 204.212 61.32C202.9 59.848 202.244 57.752 202.244 55.032V53.112H207.236V55.416C207.236 57.592 208.148 58.68 209.972 58.68C210.868 58.68 211.54 58.424 211.988 57.912C212.468 57.368 212.708 56.504 212.708 55.32C212.708 53.912 212.388 52.68 211.748 51.624C211.108 50.536 209.924 49.24 208.196 47.736C206.02 45.816 204.5 44.088 203.636 42.552C202.772 40.984 202.34 39.224 202.34 37.272C202.34 34.616 203.012 32.568 204.355 31.128C205.7 29.656 207.652 28.92 210.212 28.92C212.74 28.92 214.644 29.656 215.924 31.128C217.236 32.568 217.892 34.648 217.892 37.368V38.76H212.9V37.032C212.9 35.88 212.676 35.048 212.228 34.536C211.78 33.992 211.124 33.72 210.26 33.72C208.5 33.72 207.62 34.792 207.62 36.936C207.62 38.152 207.94 39.288 208.58 40.344C209.252 41.4 210.452 42.68 212.18 44.184C214.388 46.104 215.908 47.848 216.74 49.416C217.572 50.984 217.988 52.824 217.988 54.936C217.988 57.688 217.3 59.8 215.924 61.272C214.58 62.744 212.612 63.48 210.02 63.48Z" fill="black"/>
</svg>
